# Wavefront OBJ file automatically generated by Tiled2Unity

# Vertices (Count = 313)
v -15 -58 0
v -16 -58 0
v -16 -57 0
v -15 -57 0
v -17 -58 0
v -17 -57 0
v -18 -58 0
v -18 -57 0
v -19 -58 0
v -19 -57 0
v -20 -58 0
v -20 -57 0
v -21 -58 0
v -21 -57 0
v -22 -58 0
v -22 -57 0
v -23 -58 0
v -23 -57 0
v -24 -58 0
v -24 -57 0
v -47 -58 0
v -48 -58 0
v -48 -57 0
v -47 -57 0
v -49 -58 0
v -49 -57 0
v -50 -58 0
v -50 -57 0
v -51 -58 0
v -51 -57 0
v -14 -59 0
v -15 -59 0
v -14 -58 0
v -16 -59 0
v -17 -59 0
v -18 -59 0
v -19 -59 0
v -20 -59 0
v -21 -59 0
v -22 -59 0
v -23 -59 0
v -24 -59 0
v -47 -59 0
v -48 -59 0
v -49 -59 0
v -50 -59 0
v -51 -59 0
v -13 -60 0
v -14 -60 0
v -13 -59 0
v -15 -60 0
v -16 -60 0
v -17 -60 0
v -18 -60 0
v -19 -60 0
v -20 -60 0
v -21 -60 0
v -22 -60 0
v -23 -60 0
v -24 -60 0
v -47 -60 0
v -48 -60 0
v -49 -60 0
v -50 -60 0
v -51 -60 0
v -52 -60 0
v -52 -59 0
v -53 -60 0
v -53 -59 0
v -13 -61 0
v -14 -61 0
v -15 -61 0
v -16 -61 0
v -17 -61 0
v -18 -61 0
v -19 -61 0
v -20 -61 0
v -21 -61 0
v -22 -61 0
v -23 -61 0
v -24 -61 0
v -47 -61 0
v -48 -61 0
v -49 -61 0
v -50 -61 0
v -51 -61 0
v -52 -61 0
v -53 -61 0
v -12 -62 0
v -13 -62 0
v -12 -61 0
v -14 -62 0
v -15 -62 0
v -16 -62 0
v -17 -62 0
v -18 -62 0
v -19 -62 0
v -20 -62 0
v -21 -62 0
v -22 -62 0
v -23 -62 0
v -24 -62 0
v -25 -62 0
v -25 -61 0
v -26 -62 0
v -26 -61 0
v -27 -62 0
v -27 -61 0
v -28 -62 0
v -28 -61 0
v -29 -62 0
v -29 -61 0
v -30 -62 0
v -30 -61 0
v -31 -62 0
v -31 -61 0
v -32 -62 0
v -32 -61 0
v -33 -62 0
v -33 -61 0
v -34 -62 0
v -34 -61 0
v -35 -62 0
v -35 -61 0
v -36 -62 0
v -36 -61 0
v -37 -62 0
v -37 -61 0
v -38 -62 0
v -38 -61 0
v -39 -62 0
v -39 -61 0
v -40 -62 0
v -40 -61 0
v -41 -62 0
v -41 -61 0
v -42 -62 0
v -42 -61 0
v -43 -62 0
v -43 -61 0
v -44 -62 0
v -44 -61 0
v -45 -62 0
v -45 -61 0
v -46 -62 0
v -46 -61 0
v -47 -62 0
v -48 -62 0
v -49 -62 0
v -50 -62 0
v -51 -62 0
v -52 -62 0
v -53 -62 0
v -54 -62 0
v -54 -61 0
v -55 -62 0
v -55 -61 0
v -56 -62 0
v -56 -61 0
v -57 -62 0
v -57 -61 0
v -58 -62 0
v -58 -61 0
v -59 -62 0
v -59 -61 0
v -60 -62 0
v -60 -61 0
v -61 -62 0
v -61 -61 0
v -62 -62 0
v -62 -61 0
v -63 -62 0
v -63 -61 0
v 0 -63 0
v -1 -63 0
v -1 -62 0
v 0 -62 0
v -2 -63 0
v -2 -62 0
v -3 -63 0
v -3 -62 0
v -4 -63 0
v -4 -62 0
v -5 -63 0
v -5 -62 0
v -6 -63 0
v -6 -62 0
v -7 -63 0
v -7 -62 0
v -8 -63 0
v -8 -62 0
v -9 -63 0
v -9 -62 0
v -10 -63 0
v -10 -62 0
v -11 -63 0
v -11 -62 0
v -12 -63 0
v -13 -63 0
v -14 -63 0
v -15 -63 0
v -16 -63 0
v -17 -63 0
v -18 -63 0
v -19 -63 0
v -20 -63 0
v -21 -63 0
v -22 -63 0
v -23 -63 0
v -24 -63 0
v -25 -63 0
v -26 -63 0
v -27 -63 0
v -28 -63 0
v -29 -63 0
v -30 -63 0
v -31 -63 0
v -32 -63 0
v -33 -63 0
v -34 -63 0
v -35 -63 0
v -36 -63 0
v -37 -63 0
v -38 -63 0
v -39 -63 0
v -40 -63 0
v -41 -63 0
v -42 -63 0
v -43 -63 0
v -44 -63 0
v -45 -63 0
v -46 -63 0
v -47 -63 0
v -48 -63 0
v -49 -63 0
v -50 -63 0
v -51 -63 0
v -52 -63 0
v -53 -63 0
v -54 -63 0
v -55 -63 0
v -56 -63 0
v -57 -63 0
v -58 -63 0
v -59 -63 0
v -60 -63 0
v -61 -63 0
v -62 -63 0
v -63 -63 0
v 0 -64 0
v -1 -64 0
v -2 -64 0
v -3 -64 0
v -4 -64 0
v -5 -64 0
v -6 -64 0
v -7 -64 0
v -8 -64 0
v -9 -64 0
v -10 -64 0
v -11 -64 0
v -12 -64 0
v -13 -64 0
v -14 -64 0
v -15 -64 0
v -16 -64 0
v -17 -64 0
v -18 -64 0
v -19 -64 0
v -20 -64 0
v -21 -64 0
v -22 -64 0
v -23 -64 0
v -24 -64 0
v -25 -64 0
v -26 -64 0
v -27 -64 0
v -28 -64 0
v -29 -64 0
v -30 -64 0
v -31 -64 0
v -32 -64 0
v -33 -64 0
v -34 -64 0
v -35 -64 0
v -36 -64 0
v -37 -64 0
v -38 -64 0
v -39 -64 0
v -40 -64 0
v -41 -64 0
v -42 -64 0
v -43 -64 0
v -44 -64 0
v -45 -64 0
v -46 -64 0
v -47 -64 0
v -48 -64 0
v -49 -64 0
v -50 -64 0
v -51 -64 0
v -52 -64 0
v -53 -64 0
v -54 -64 0
v -55 -64 0
v -56 -64 0
v -57 -64 0
v -58 -64 0
v -59 -64 0
v -60 -64 0
v -61 -64 0
v -62 -64 0
v -63 -64 0

# Texture cooridinates (Count = 32)
vt 0.4705954 0.8750153
vt 0.5294046 0.8750153
vt 0.5294046 0.9999847
vt 0.4705954 0.9999847
vt 0.5294189 0.7500153
vt 0.5882281 0.7500153
vt 0.5882281 0.8749847
vt 0.5294189 0.8749847
vt 0.647066 0.7500153
vt 0.7058752 0.7500153
vt 0.7058752 0.8749847
vt 0.647066 0.8749847
vt 0.5882425 0.8750153
vt 0.6470516 0.8750153
vt 0.6470516 0.9999847
vt 0.5882425 0.9999847
vt 0.7058895 0.7500153
vt 0.7646987 0.7500153
vt 0.7646987 0.8749847
vt 0.7058895 0.8749847
vt 0.4705954 0.7500153
vt 0.5294046 0.7500153
vt 0.5294046 0.8749847
vt 0.4705954 0.8749847
vt 0.5882425 0.7500153
vt 0.6470516 0.7500153
vt 0.6470516 0.8749847
vt 0.5882425 0.8749847
vt 0.647066 0.8750153
vt 0.7058752 0.8750153
vt 0.7058752 0.9999847
vt 0.647066 0.9999847

# Normal
vn 0 0 -1

# Groups (Count = 1)

g mesh_0001
f 1/1/1 2/2/1 3/3/1 4/4/1
f 2/1/1 5/2/1 6/3/1 3/4/1
f 5/1/1 7/2/1 8/3/1 6/4/1
f 7/1/1 9/2/1 10/3/1 8/4/1
f 9/1/1 11/2/1 12/3/1 10/4/1
f 11/1/1 13/2/1 14/3/1 12/4/1
f 13/1/1 15/2/1 16/3/1 14/4/1
f 15/1/1 17/2/1 18/3/1 16/4/1
f 17/5/1 19/6/1 20/7/1 18/8/1
f 21/9/1 22/10/1 23/11/1 24/12/1
f 22/9/1 25/10/1 26/11/1 23/12/1
f 25/9/1 27/10/1 28/11/1 26/12/1
f 27/9/1 29/10/1 30/11/1 28/12/1
f 31/13/1 32/14/1 1/15/1 33/16/1
f 32/9/1 34/10/1 2/11/1 1/12/1
f 34/9/1 35/10/1 5/11/1 2/12/1
f 35/9/1 36/10/1 7/11/1 5/12/1
f 36/9/1 37/10/1 9/11/1 7/12/1
f 37/9/1 38/10/1 11/11/1 9/12/1
f 38/9/1 39/10/1 13/11/1 11/12/1
f 39/9/1 40/10/1 15/11/1 13/12/1
f 40/9/1 41/10/1 17/11/1 15/12/1
f 41/17/1 42/18/1 19/19/1 17/20/1
f 43/9/1 44/10/1 22/11/1 21/12/1
f 44/9/1 45/10/1 25/11/1 22/12/1
f 45/9/1 46/10/1 27/11/1 25/12/1
f 46/9/1 47/10/1 29/11/1 27/12/1
f 48/21/1 49/22/1 31/23/1 50/24/1
f 49/9/1 51/10/1 32/11/1 31/12/1
f 51/9/1 52/10/1 34/11/1 32/12/1
f 52/9/1 53/10/1 35/11/1 34/12/1
f 53/9/1 54/10/1 36/11/1 35/12/1
f 54/9/1 55/10/1 37/11/1 36/12/1
f 55/9/1 56/10/1 38/11/1 37/12/1
f 56/9/1 57/10/1 39/11/1 38/12/1
f 57/9/1 58/10/1 40/11/1 39/12/1
f 58/9/1 59/10/1 41/11/1 40/12/1
f 59/17/1 60/18/1 42/19/1 41/20/1
f 61/9/1 62/10/1 44/11/1 43/12/1
f 62/9/1 63/10/1 45/11/1 44/12/1
f 63/9/1 64/10/1 46/11/1 45/12/1
f 64/9/1 65/10/1 47/11/1 46/12/1
f 65/9/1 66/10/1 67/11/1 47/12/1
f 66/9/1 68/10/1 69/11/1 67/12/1
f 70/25/1 71/26/1 49/27/1 48/28/1
f 71/9/1 72/10/1 51/11/1 49/12/1
f 72/9/1 73/10/1 52/11/1 51/12/1
f 73/9/1 74/10/1 53/11/1 52/12/1
f 74/9/1 75/10/1 54/11/1 53/12/1
f 75/9/1 76/10/1 55/11/1 54/12/1
f 76/9/1 77/10/1 56/11/1 55/12/1
f 77/9/1 78/10/1 57/11/1 56/12/1
f 78/9/1 79/10/1 58/11/1 57/12/1
f 79/9/1 80/10/1 59/11/1 58/12/1
f 80/17/1 81/18/1 60/19/1 59/20/1
f 82/9/1 83/10/1 62/11/1 61/12/1
f 83/9/1 84/10/1 63/11/1 62/12/1
f 84/9/1 85/10/1 64/11/1 63/12/1
f 85/9/1 86/10/1 65/11/1 64/12/1
f 86/9/1 87/10/1 66/11/1 65/12/1
f 87/9/1 88/10/1 68/11/1 66/12/1
f 89/21/1 90/22/1 70/23/1 91/24/1
f 90/9/1 92/10/1 71/11/1 70/12/1
f 92/9/1 93/10/1 72/11/1 71/12/1
f 93/9/1 94/10/1 73/11/1 72/12/1
f 94/9/1 95/10/1 74/11/1 73/12/1
f 95/9/1 96/10/1 75/11/1 74/12/1
f 96/9/1 97/10/1 76/11/1 75/12/1
f 97/9/1 98/10/1 77/11/1 76/12/1
f 98/9/1 99/10/1 78/11/1 77/12/1
f 99/9/1 100/10/1 79/11/1 78/12/1
f 100/9/1 101/10/1 80/11/1 79/12/1
f 101/9/1 102/10/1 81/11/1 80/12/1
f 102/9/1 103/10/1 104/11/1 81/12/1
f 103/9/1 105/10/1 106/11/1 104/12/1
f 105/9/1 107/10/1 108/11/1 106/12/1
f 107/9/1 109/10/1 110/11/1 108/12/1
f 109/9/1 111/10/1 112/11/1 110/12/1
f 111/9/1 113/10/1 114/11/1 112/12/1
f 113/9/1 115/10/1 116/11/1 114/12/1
f 115/9/1 117/10/1 118/11/1 116/12/1
f 117/9/1 119/10/1 120/11/1 118/12/1
f 119/9/1 121/10/1 122/11/1 120/12/1
f 121/9/1 123/10/1 124/11/1 122/12/1
f 123/9/1 125/10/1 126/11/1 124/12/1
f 125/9/1 127/10/1 128/11/1 126/12/1
f 127/9/1 129/10/1 130/11/1 128/12/1
f 129/9/1 131/10/1 132/11/1 130/12/1
f 131/9/1 133/10/1 134/11/1 132/12/1
f 133/9/1 135/10/1 136/11/1 134/12/1
f 135/9/1 137/10/1 138/11/1 136/12/1
f 137/9/1 139/10/1 140/11/1 138/12/1
f 139/9/1 141/10/1 142/11/1 140/12/1
f 141/9/1 143/10/1 144/11/1 142/12/1
f 143/9/1 145/10/1 146/11/1 144/12/1
f 145/9/1 147/10/1 82/11/1 146/12/1
f 147/9/1 148/10/1 83/11/1 82/12/1
f 148/9/1 149/10/1 84/11/1 83/12/1
f 149/9/1 150/10/1 85/11/1 84/12/1
f 150/9/1 151/10/1 86/11/1 85/12/1
f 151/9/1 152/10/1 87/11/1 86/12/1
f 152/9/1 153/10/1 88/11/1 87/12/1
f 153/9/1 154/10/1 155/11/1 88/12/1
f 154/9/1 156/10/1 157/11/1 155/12/1
f 156/9/1 158/10/1 159/11/1 157/12/1
f 158/9/1 160/10/1 161/11/1 159/12/1
f 160/9/1 162/10/1 163/11/1 161/12/1
f 162/9/1 164/10/1 165/11/1 163/12/1
f 164/9/1 166/10/1 167/11/1 165/12/1
f 166/9/1 168/10/1 169/11/1 167/12/1
f 168/9/1 170/10/1 171/11/1 169/12/1
f 170/9/1 172/10/1 173/11/1 171/12/1
f 174/1/1 175/2/1 176/3/1 177/4/1
f 175/1/1 178/2/1 179/3/1 176/4/1
f 178/1/1 180/2/1 181/3/1 179/4/1
f 180/1/1 182/2/1 183/3/1 181/4/1
f 182/1/1 184/2/1 185/3/1 183/4/1
f 184/1/1 186/2/1 187/3/1 185/4/1
f 186/29/1 188/30/1 189/31/1 187/32/1
f 188/1/1 190/2/1 191/3/1 189/4/1
f 190/1/1 192/2/1 193/3/1 191/4/1
f 192/1/1 194/2/1 195/3/1 193/4/1
f 194/1/1 196/2/1 197/3/1 195/4/1
f 196/29/1 198/30/1 89/31/1 197/32/1
f 198/9/1 199/10/1 90/11/1 89/12/1
f 199/9/1 200/10/1 92/11/1 90/12/1
f 200/9/1 201/10/1 93/11/1 92/12/1
f 201/9/1 202/10/1 94/11/1 93/12/1
f 202/9/1 203/10/1 95/11/1 94/12/1
f 203/9/1 204/10/1 96/11/1 95/12/1
f 204/9/1 205/10/1 97/11/1 96/12/1
f 205/9/1 206/10/1 98/11/1 97/12/1
f 206/9/1 207/10/1 99/11/1 98/12/1
f 207/9/1 208/10/1 100/11/1 99/12/1
f 208/9/1 209/10/1 101/11/1 100/12/1
f 209/9/1 210/10/1 102/11/1 101/12/1
f 210/9/1 211/10/1 103/11/1 102/12/1
f 211/9/1 212/10/1 105/11/1 103/12/1
f 212/9/1 213/10/1 107/11/1 105/12/1
f 213/9/1 214/10/1 109/11/1 107/12/1
f 214/9/1 215/10/1 111/11/1 109/12/1
f 215/9/1 216/10/1 113/11/1 111/12/1
f 216/9/1 217/10/1 115/11/1 113/12/1
f 217/9/1 218/10/1 117/11/1 115/12/1
f 218/9/1 219/10/1 119/11/1 117/12/1
f 219/9/1 220/10/1 121/11/1 119/12/1
f 220/9/1 221/10/1 123/11/1 121/12/1
f 221/9/1 222/10/1 125/11/1 123/12/1
f 222/9/1 223/10/1 127/11/1 125/12/1
f 223/9/1 224/10/1 129/11/1 127/12/1
f 224/9/1 225/10/1 131/11/1 129/12/1
f 225/9/1 226/10/1 133/11/1 131/12/1
f 226/9/1 227/10/1 135/11/1 133/12/1
f 227/9/1 228/10/1 137/11/1 135/12/1
f 228/9/1 229/10/1 139/11/1 137/12/1
f 229/9/1 230/10/1 141/11/1 139/12/1
f 230/9/1 231/10/1 143/11/1 141/12/1
f 231/9/1 232/10/1 145/11/1 143/12/1
f 232/9/1 233/10/1 147/11/1 145/12/1
f 233/9/1 234/10/1 148/11/1 147/12/1
f 234/9/1 235/10/1 149/11/1 148/12/1
f 235/9/1 236/10/1 150/11/1 149/12/1
f 236/9/1 237/10/1 151/11/1 150/12/1
f 237/9/1 238/10/1 152/11/1 151/12/1
f 238/9/1 239/10/1 153/11/1 152/12/1
f 239/9/1 240/10/1 154/11/1 153/12/1
f 240/9/1 241/10/1 156/11/1 154/12/1
f 241/9/1 242/10/1 158/11/1 156/12/1
f 242/9/1 243/10/1 160/11/1 158/12/1
f 243/9/1 244/10/1 162/11/1 160/12/1
f 244/9/1 245/10/1 164/11/1 162/12/1
f 245/9/1 246/10/1 166/11/1 164/12/1
f 246/9/1 247/10/1 168/11/1 166/12/1
f 247/9/1 248/10/1 170/11/1 168/12/1
f 248/9/1 249/10/1 172/11/1 170/12/1
f 250/9/1 251/10/1 175/11/1 174/12/1
f 251/9/1 252/10/1 178/11/1 175/12/1
f 252/9/1 253/10/1 180/11/1 178/12/1
f 253/9/1 254/10/1 182/11/1 180/12/1
f 254/9/1 255/10/1 184/11/1 182/12/1
f 255/9/1 256/10/1 186/11/1 184/12/1
f 256/9/1 257/10/1 188/11/1 186/12/1
f 257/9/1 258/10/1 190/11/1 188/12/1
f 258/9/1 259/10/1 192/11/1 190/12/1
f 259/9/1 260/10/1 194/11/1 192/12/1
f 260/9/1 261/10/1 196/11/1 194/12/1
f 261/9/1 262/10/1 198/11/1 196/12/1
f 262/9/1 263/10/1 199/11/1 198/12/1
f 263/9/1 264/10/1 200/11/1 199/12/1
f 264/9/1 265/10/1 201/11/1 200/12/1
f 265/9/1 266/10/1 202/11/1 201/12/1
f 266/9/1 267/10/1 203/11/1 202/12/1
f 267/9/1 268/10/1 204/11/1 203/12/1
f 268/9/1 269/10/1 205/11/1 204/12/1
f 269/9/1 270/10/1 206/11/1 205/12/1
f 270/9/1 271/10/1 207/11/1 206/12/1
f 271/9/1 272/10/1 208/11/1 207/12/1
f 272/9/1 273/10/1 209/11/1 208/12/1
f 273/9/1 274/10/1 210/11/1 209/12/1
f 274/9/1 275/10/1 211/11/1 210/12/1
f 275/9/1 276/10/1 212/11/1 211/12/1
f 276/9/1 277/10/1 213/11/1 212/12/1
f 277/9/1 278/10/1 214/11/1 213/12/1
f 278/9/1 279/10/1 215/11/1 214/12/1
f 279/9/1 280/10/1 216/11/1 215/12/1
f 280/9/1 281/10/1 217/11/1 216/12/1
f 281/9/1 282/10/1 218/11/1 217/12/1
f 282/9/1 283/10/1 219/11/1 218/12/1
f 283/9/1 284/10/1 220/11/1 219/12/1
f 284/9/1 285/10/1 221/11/1 220/12/1
f 285/9/1 286/10/1 222/11/1 221/12/1
f 286/9/1 287/10/1 223/11/1 222/12/1
f 287/9/1 288/10/1 224/11/1 223/12/1
f 288/9/1 289/10/1 225/11/1 224/12/1
f 289/9/1 290/10/1 226/11/1 225/12/1
f 290/9/1 291/10/1 227/11/1 226/12/1
f 291/9/1 292/10/1 228/11/1 227/12/1
f 292/9/1 293/10/1 229/11/1 228/12/1
f 293/9/1 294/10/1 230/11/1 229/12/1
f 294/9/1 295/10/1 231/11/1 230/12/1
f 295/9/1 296/10/1 232/11/1 231/12/1
f 296/9/1 297/10/1 233/11/1 232/12/1
f 297/9/1 298/10/1 234/11/1 233/12/1
f 298/9/1 299/10/1 235/11/1 234/12/1
f 299/9/1 300/10/1 236/11/1 235/12/1
f 300/9/1 301/10/1 237/11/1 236/12/1
f 301/9/1 302/10/1 238/11/1 237/12/1
f 302/9/1 303/10/1 239/11/1 238/12/1
f 303/9/1 304/10/1 240/11/1 239/12/1
f 304/9/1 305/10/1 241/11/1 240/12/1
f 305/9/1 306/10/1 242/11/1 241/12/1
f 306/9/1 307/10/1 243/11/1 242/12/1
f 307/9/1 308/10/1 244/11/1 243/12/1
f 308/9/1 309/10/1 245/11/1 244/12/1
f 309/9/1 310/10/1 246/11/1 245/12/1
f 310/9/1 311/10/1 247/11/1 246/12/1
f 311/9/1 312/10/1 248/11/1 247/12/1
f 312/9/1 313/10/1 249/11/1 248/12/1

