# Wavefront OBJ file automatically generated by Tiled2Unity

# Vertices (Count = 357)
v 0 -1 0
v -1 -1 0
v -1 0 0
v 0 0 0
v -2 -1 0
v -2 0 0
v -3 -1 0
v -3 0 0
v -4 -1 0
v -4 0 0
v -5 -1 0
v -5 0 0
v -6 -1 0
v -6 0 0
v -7 -1 0
v -7 0 0
v -8 -1 0
v -8 0 0
v -9 -1 0
v -9 0 0
v -10 -1 0
v -10 0 0
v -11 -1 0
v -11 0 0
v -12 -1 0
v -12 0 0
v -13 -1 0
v -13 0 0
v -14 -1 0
v -14 0 0
v -15 -1 0
v -15 0 0
v -16 -1 0
v -16 0 0
v 0 -2 0
v -1 -2 0
v -2 -2 0
v -3 -2 0
v -4 -2 0
v -5 -2 0
v -6 -2 0
v -7 -2 0
v -8 -2 0
v -9 -2 0
v -10 -2 0
v -11 -2 0
v -12 -2 0
v -13 -2 0
v -14 -2 0
v -15 -2 0
v -16 -2 0
v 0 -3 0
v -1 -3 0
v -2 -3 0
v -3 -3 0
v -4 -3 0
v -5 -3 0
v -6 -3 0
v -7 -3 0
v -8 -3 0
v -9 -3 0
v -10 -3 0
v -11 -3 0
v -12 -3 0
v -13 -3 0
v -14 -3 0
v -15 -3 0
v -16 -3 0
v 0 -4 0
v -1 -4 0
v -2 -4 0
v -3 -4 0
v -4 -4 0
v -5 -4 0
v -6 -4 0
v -7 -4 0
v -8 -4 0
v -9 -4 0
v -10 -4 0
v -11 -4 0
v -12 -4 0
v -13 -4 0
v -14 -4 0
v -15 -4 0
v -16 -4 0
v 0 -5 0
v -1 -5 0
v -2 -5 0
v -3 -5 0
v -4 -5 0
v -5 -5 0
v -6 -5 0
v -7 -5 0
v -8 -5 0
v -9 -5 0
v -10 -5 0
v -11 -5 0
v -12 -5 0
v -13 -5 0
v -14 -5 0
v -15 -5 0
v -16 -5 0
v 0 -6 0
v -1 -6 0
v -2 -6 0
v -3 -6 0
v -4 -6 0
v -5 -6 0
v -6 -6 0
v -7 -6 0
v -8 -6 0
v -9 -6 0
v -10 -6 0
v -11 -6 0
v -12 -6 0
v -13 -6 0
v -14 -6 0
v -15 -6 0
v -16 -6 0
v 0 -7 0
v -1 -7 0
v -2 -7 0
v -3 -7 0
v -4 -7 0
v -5 -7 0
v -6 -7 0
v -7 -7 0
v -8 -7 0
v -9 -7 0
v -10 -7 0
v -11 -7 0
v -12 -7 0
v -13 -7 0
v -14 -7 0
v -15 -7 0
v -16 -7 0
v 0 -8 0
v -1 -8 0
v -2 -8 0
v -3 -8 0
v -4 -8 0
v -5 -8 0
v -6 -8 0
v -7 -8 0
v -8 -8 0
v -9 -8 0
v -10 -8 0
v -11 -8 0
v -12 -8 0
v -13 -8 0
v -14 -8 0
v -15 -8 0
v -16 -8 0
v 0 -9 0
v -1 -9 0
v -2 -9 0
v -3 -9 0
v -4 -9 0
v -5 -9 0
v -6 -9 0
v -7 -9 0
v -8 -9 0
v -9 -9 0
v -10 -9 0
v -11 -9 0
v -12 -9 0
v -13 -9 0
v -14 -9 0
v -15 -9 0
v -16 -9 0
v 0 -10 0
v -1 -10 0
v -2 -10 0
v -3 -10 0
v -4 -10 0
v -5 -10 0
v -6 -10 0
v -7 -10 0
v -8 -10 0
v -9 -10 0
v -10 -10 0
v -11 -10 0
v -12 -10 0
v -13 -10 0
v -14 -10 0
v -15 -10 0
v -16 -10 0
v 0 -11 0
v -1 -11 0
v -2 -11 0
v -3 -11 0
v -4 -11 0
v -5 -11 0
v -6 -11 0
v -7 -11 0
v -8 -11 0
v -9 -11 0
v -10 -11 0
v -11 -11 0
v -12 -11 0
v -13 -11 0
v -14 -11 0
v -15 -11 0
v -16 -11 0
v 0 -12 0
v -1 -12 0
v -2 -12 0
v -3 -12 0
v -4 -12 0
v -5 -12 0
v -6 -12 0
v -7 -12 0
v -8 -12 0
v -9 -12 0
v -10 -12 0
v -11 -12 0
v -12 -12 0
v -13 -12 0
v -14 -12 0
v -15 -12 0
v -16 -12 0
v 0 -13 0
v -1 -13 0
v -2 -13 0
v -3 -13 0
v -4 -13 0
v -5 -13 0
v -6 -13 0
v -7 -13 0
v -8 -13 0
v -9 -13 0
v -10 -13 0
v -11 -13 0
v -12 -13 0
v -13 -13 0
v -14 -13 0
v -15 -13 0
v -16 -13 0
v 0 -14 0
v -1 -14 0
v -2 -14 0
v -3 -14 0
v -4 -14 0
v -5 -14 0
v -6 -14 0
v -7 -14 0
v -8 -14 0
v -9 -14 0
v -10 -14 0
v -11 -14 0
v -12 -14 0
v -13 -14 0
v -14 -14 0
v -15 -14 0
v -16 -14 0
v 0 -15 0
v -1 -15 0
v -2 -15 0
v -3 -15 0
v -4 -15 0
v -5 -15 0
v -6 -15 0
v -7 -15 0
v -8 -15 0
v -9 -15 0
v -10 -15 0
v -11 -15 0
v -12 -15 0
v -13 -15 0
v -14 -15 0
v -15 -15 0
v -16 -15 0
v 0 -16 0
v -1 -16 0
v -2 -16 0
v -3 -16 0
v -4 -16 0
v -5 -16 0
v -6 -16 0
v -7 -16 0
v -8 -16 0
v -9 -16 0
v -10 -16 0
v -11 -16 0
v -12 -16 0
v -13 -16 0
v -14 -16 0
v -15 -16 0
v -16 -16 0
v 0 -17 0
v -1 -17 0
v -2 -17 0
v -3 -17 0
v -4 -17 0
v -5 -17 0
v -6 -17 0
v -7 -17 0
v -8 -17 0
v -9 -17 0
v -10 -17 0
v -11 -17 0
v -12 -17 0
v -13 -17 0
v -14 -17 0
v -15 -17 0
v -16 -17 0
v 0 -18 0
v -1 -18 0
v -2 -18 0
v -3 -18 0
v -4 -18 0
v -5 -18 0
v -6 -18 0
v -7 -18 0
v -8 -18 0
v -9 -18 0
v -10 -18 0
v -11 -18 0
v -12 -18 0
v -13 -18 0
v -14 -18 0
v -15 -18 0
v -16 -18 0
v 0 -19 0
v -1 -19 0
v -2 -19 0
v -3 -19 0
v -4 -19 0
v -5 -19 0
v -6 -19 0
v -7 -19 0
v -8 -19 0
v -9 -19 0
v -10 -19 0
v -11 -19 0
v -12 -19 0
v -13 -19 0
v -14 -19 0
v -15 -19 0
v -16 -19 0
v 0 -20 0
v -1 -20 0
v -2 -20 0
v -3 -20 0
v -4 -20 0
v -5 -20 0
v -6 -20 0
v -7 -20 0
v -8 -20 0
v -9 -20 0
v -10 -20 0
v -11 -20 0
v -12 -20 0
v -13 -20 0
v -14 -20 0
v -15 -20 0
v -16 -20 0

# Texture cooridinates (Count = 24)
vt 0.4705954 0.7500153
vt 0.5294046 0.7500153
vt 0.5294046 0.8749847
vt 0.4705954 0.8749847
vt 0.4705954 0.8750153
vt 0.5294046 0.8750153
vt 0.5294046 0.9999847
vt 0.4705954 0.9999847
vt 0.5294189 0.7500153
vt 0.5882281 0.7500153
vt 0.5882281 0.8749847
vt 0.5294189 0.8749847
vt 0.5882425 0.7500153
vt 0.6470516 0.7500153
vt 0.6470516 0.8749847
vt 0.5882425 0.8749847
vt 0.647066 0.7500153
vt 0.7058752 0.7500153
vt 0.7058752 0.8749847
vt 0.647066 0.8749847
vt 0.7058895 0.7500153
vt 0.7646987 0.7500153
vt 0.7646987 0.8749847
vt 0.7058895 0.8749847

# Normal
vn 0 0 -1

# Groups (Count = 1)

g mesh_0001
f 1/1/1 2/2/1 3/3/1 4/4/1
f 2/5/1 5/6/1 6/7/1 3/8/1
f 5/5/1 7/6/1 8/7/1 6/8/1
f 7/5/1 9/6/1 10/7/1 8/8/1
f 9/5/1 11/6/1 12/7/1 10/8/1
f 11/5/1 13/6/1 14/7/1 12/8/1
f 13/5/1 15/6/1 16/7/1 14/8/1
f 15/5/1 17/6/1 18/7/1 16/8/1
f 17/5/1 19/6/1 20/7/1 18/8/1
f 19/5/1 21/6/1 22/7/1 20/8/1
f 21/5/1 23/6/1 24/7/1 22/8/1
f 23/5/1 25/6/1 26/7/1 24/8/1
f 25/5/1 27/6/1 28/7/1 26/8/1
f 27/5/1 29/6/1 30/7/1 28/8/1
f 29/5/1 31/6/1 32/7/1 30/8/1
f 31/9/1 33/10/1 34/11/1 32/12/1
f 35/13/1 36/14/1 2/15/1 1/16/1
f 36/17/1 37/18/1 5/19/1 2/20/1
f 37/17/1 38/18/1 7/19/1 5/20/1
f 38/17/1 39/18/1 9/19/1 7/20/1
f 39/17/1 40/18/1 11/19/1 9/20/1
f 40/17/1 41/18/1 13/19/1 11/20/1
f 41/17/1 42/18/1 15/19/1 13/20/1
f 42/17/1 43/18/1 17/19/1 15/20/1
f 43/17/1 44/18/1 19/19/1 17/20/1
f 44/17/1 45/18/1 21/19/1 19/20/1
f 45/17/1 46/18/1 23/19/1 21/20/1
f 46/17/1 47/18/1 25/19/1 23/20/1
f 47/17/1 48/18/1 27/19/1 25/20/1
f 48/17/1 49/18/1 29/19/1 27/20/1
f 49/17/1 50/18/1 31/19/1 29/20/1
f 50/21/1 51/22/1 33/23/1 31/24/1
f 52/13/1 53/14/1 36/15/1 35/16/1
f 53/17/1 54/18/1 37/19/1 36/20/1
f 54/17/1 55/18/1 38/19/1 37/20/1
f 55/17/1 56/18/1 39/19/1 38/20/1
f 56/17/1 57/18/1 40/19/1 39/20/1
f 57/17/1 58/18/1 41/19/1 40/20/1
f 58/17/1 59/18/1 42/19/1 41/20/1
f 59/17/1 60/18/1 43/19/1 42/20/1
f 60/17/1 61/18/1 44/19/1 43/20/1
f 61/17/1 62/18/1 45/19/1 44/20/1
f 62/17/1 63/18/1 46/19/1 45/20/1
f 63/17/1 64/18/1 47/19/1 46/20/1
f 64/17/1 65/18/1 48/19/1 47/20/1
f 65/17/1 66/18/1 49/19/1 48/20/1
f 66/17/1 67/18/1 50/19/1 49/20/1
f 67/21/1 68/22/1 51/23/1 50/24/1
f 69/13/1 70/14/1 53/15/1 52/16/1
f 70/17/1 71/18/1 54/19/1 53/20/1
f 71/17/1 72/18/1 55/19/1 54/20/1
f 72/17/1 73/18/1 56/19/1 55/20/1
f 73/17/1 74/18/1 57/19/1 56/20/1
f 74/17/1 75/18/1 58/19/1 57/20/1
f 75/17/1 76/18/1 59/19/1 58/20/1
f 76/17/1 77/18/1 60/19/1 59/20/1
f 77/17/1 78/18/1 61/19/1 60/20/1
f 78/17/1 79/18/1 62/19/1 61/20/1
f 79/17/1 80/18/1 63/19/1 62/20/1
f 80/17/1 81/18/1 64/19/1 63/20/1
f 81/17/1 82/18/1 65/19/1 64/20/1
f 82/17/1 83/18/1 66/19/1 65/20/1
f 83/17/1 84/18/1 67/19/1 66/20/1
f 84/21/1 85/22/1 68/23/1 67/24/1
f 86/13/1 87/14/1 70/15/1 69/16/1
f 87/17/1 88/18/1 71/19/1 70/20/1
f 88/17/1 89/18/1 72/19/1 71/20/1
f 89/17/1 90/18/1 73/19/1 72/20/1
f 90/17/1 91/18/1 74/19/1 73/20/1
f 91/17/1 92/18/1 75/19/1 74/20/1
f 92/17/1 93/18/1 76/19/1 75/20/1
f 93/17/1 94/18/1 77/19/1 76/20/1
f 94/17/1 95/18/1 78/19/1 77/20/1
f 95/17/1 96/18/1 79/19/1 78/20/1
f 96/17/1 97/18/1 80/19/1 79/20/1
f 97/17/1 98/18/1 81/19/1 80/20/1
f 98/17/1 99/18/1 82/19/1 81/20/1
f 99/17/1 100/18/1 83/19/1 82/20/1
f 100/17/1 101/18/1 84/19/1 83/20/1
f 101/21/1 102/22/1 85/23/1 84/24/1
f 103/13/1 104/14/1 87/15/1 86/16/1
f 104/17/1 105/18/1 88/19/1 87/20/1
f 105/17/1 106/18/1 89/19/1 88/20/1
f 106/17/1 107/18/1 90/19/1 89/20/1
f 107/17/1 108/18/1 91/19/1 90/20/1
f 108/17/1 109/18/1 92/19/1 91/20/1
f 109/17/1 110/18/1 93/19/1 92/20/1
f 110/17/1 111/18/1 94/19/1 93/20/1
f 111/17/1 112/18/1 95/19/1 94/20/1
f 112/17/1 113/18/1 96/19/1 95/20/1
f 113/17/1 114/18/1 97/19/1 96/20/1
f 114/17/1 115/18/1 98/19/1 97/20/1
f 115/17/1 116/18/1 99/19/1 98/20/1
f 116/17/1 117/18/1 100/19/1 99/20/1
f 117/17/1 118/18/1 101/19/1 100/20/1
f 118/21/1 119/22/1 102/23/1 101/24/1
f 120/13/1 121/14/1 104/15/1 103/16/1
f 121/17/1 122/18/1 105/19/1 104/20/1
f 122/17/1 123/18/1 106/19/1 105/20/1
f 123/17/1 124/18/1 107/19/1 106/20/1
f 124/17/1 125/18/1 108/19/1 107/20/1
f 125/17/1 126/18/1 109/19/1 108/20/1
f 126/17/1 127/18/1 110/19/1 109/20/1
f 127/17/1 128/18/1 111/19/1 110/20/1
f 128/17/1 129/18/1 112/19/1 111/20/1
f 129/17/1 130/18/1 113/19/1 112/20/1
f 130/17/1 131/18/1 114/19/1 113/20/1
f 131/17/1 132/18/1 115/19/1 114/20/1
f 132/17/1 133/18/1 116/19/1 115/20/1
f 133/17/1 134/18/1 117/19/1 116/20/1
f 134/17/1 135/18/1 118/19/1 117/20/1
f 135/21/1 136/22/1 119/23/1 118/24/1
f 137/13/1 138/14/1 121/15/1 120/16/1
f 138/17/1 139/18/1 122/19/1 121/20/1
f 139/17/1 140/18/1 123/19/1 122/20/1
f 140/17/1 141/18/1 124/19/1 123/20/1
f 141/17/1 142/18/1 125/19/1 124/20/1
f 142/17/1 143/18/1 126/19/1 125/20/1
f 143/17/1 144/18/1 127/19/1 126/20/1
f 144/17/1 145/18/1 128/19/1 127/20/1
f 145/17/1 146/18/1 129/19/1 128/20/1
f 146/17/1 147/18/1 130/19/1 129/20/1
f 147/17/1 148/18/1 131/19/1 130/20/1
f 148/17/1 149/18/1 132/19/1 131/20/1
f 149/17/1 150/18/1 133/19/1 132/20/1
f 150/17/1 151/18/1 134/19/1 133/20/1
f 151/17/1 152/18/1 135/19/1 134/20/1
f 152/21/1 153/22/1 136/23/1 135/24/1
f 154/13/1 155/14/1 138/15/1 137/16/1
f 155/17/1 156/18/1 139/19/1 138/20/1
f 156/17/1 157/18/1 140/19/1 139/20/1
f 157/17/1 158/18/1 141/19/1 140/20/1
f 158/17/1 159/18/1 142/19/1 141/20/1
f 159/17/1 160/18/1 143/19/1 142/20/1
f 160/17/1 161/18/1 144/19/1 143/20/1
f 161/17/1 162/18/1 145/19/1 144/20/1
f 162/17/1 163/18/1 146/19/1 145/20/1
f 163/17/1 164/18/1 147/19/1 146/20/1
f 164/17/1 165/18/1 148/19/1 147/20/1
f 165/17/1 166/18/1 149/19/1 148/20/1
f 166/17/1 167/18/1 150/19/1 149/20/1
f 167/17/1 168/18/1 151/19/1 150/20/1
f 168/17/1 169/18/1 152/19/1 151/20/1
f 169/21/1 170/22/1 153/23/1 152/24/1
f 171/13/1 172/14/1 155/15/1 154/16/1
f 172/17/1 173/18/1 156/19/1 155/20/1
f 173/17/1 174/18/1 157/19/1 156/20/1
f 174/17/1 175/18/1 158/19/1 157/20/1
f 175/17/1 176/18/1 159/19/1 158/20/1
f 176/17/1 177/18/1 160/19/1 159/20/1
f 177/17/1 178/18/1 161/19/1 160/20/1
f 178/17/1 179/18/1 162/19/1 161/20/1
f 179/17/1 180/18/1 163/19/1 162/20/1
f 180/17/1 181/18/1 164/19/1 163/20/1
f 181/17/1 182/18/1 165/19/1 164/20/1
f 182/17/1 183/18/1 166/19/1 165/20/1
f 183/17/1 184/18/1 167/19/1 166/20/1
f 184/17/1 185/18/1 168/19/1 167/20/1
f 185/17/1 186/18/1 169/19/1 168/20/1
f 186/21/1 187/22/1 170/23/1 169/24/1
f 188/13/1 189/14/1 172/15/1 171/16/1
f 189/17/1 190/18/1 173/19/1 172/20/1
f 190/17/1 191/18/1 174/19/1 173/20/1
f 191/17/1 192/18/1 175/19/1 174/20/1
f 192/17/1 193/18/1 176/19/1 175/20/1
f 193/17/1 194/18/1 177/19/1 176/20/1
f 194/17/1 195/18/1 178/19/1 177/20/1
f 195/17/1 196/18/1 179/19/1 178/20/1
f 196/17/1 197/18/1 180/19/1 179/20/1
f 197/17/1 198/18/1 181/19/1 180/20/1
f 198/17/1 199/18/1 182/19/1 181/20/1
f 199/17/1 200/18/1 183/19/1 182/20/1
f 200/17/1 201/18/1 184/19/1 183/20/1
f 201/17/1 202/18/1 185/19/1 184/20/1
f 202/17/1 203/18/1 186/19/1 185/20/1
f 203/21/1 204/22/1 187/23/1 186/24/1
f 205/13/1 206/14/1 189/15/1 188/16/1
f 206/17/1 207/18/1 190/19/1 189/20/1
f 207/17/1 208/18/1 191/19/1 190/20/1
f 208/17/1 209/18/1 192/19/1 191/20/1
f 209/17/1 210/18/1 193/19/1 192/20/1
f 210/17/1 211/18/1 194/19/1 193/20/1
f 211/17/1 212/18/1 195/19/1 194/20/1
f 212/17/1 213/18/1 196/19/1 195/20/1
f 213/17/1 214/18/1 197/19/1 196/20/1
f 214/17/1 215/18/1 198/19/1 197/20/1
f 215/17/1 216/18/1 199/19/1 198/20/1
f 216/17/1 217/18/1 200/19/1 199/20/1
f 217/17/1 218/18/1 201/19/1 200/20/1
f 218/17/1 219/18/1 202/19/1 201/20/1
f 219/17/1 220/18/1 203/19/1 202/20/1
f 220/21/1 221/22/1 204/23/1 203/24/1
f 222/13/1 223/14/1 206/15/1 205/16/1
f 223/17/1 224/18/1 207/19/1 206/20/1
f 224/17/1 225/18/1 208/19/1 207/20/1
f 225/17/1 226/18/1 209/19/1 208/20/1
f 226/17/1 227/18/1 210/19/1 209/20/1
f 227/17/1 228/18/1 211/19/1 210/20/1
f 228/17/1 229/18/1 212/19/1 211/20/1
f 229/17/1 230/18/1 213/19/1 212/20/1
f 230/17/1 231/18/1 214/19/1 213/20/1
f 231/17/1 232/18/1 215/19/1 214/20/1
f 232/17/1 233/18/1 216/19/1 215/20/1
f 233/17/1 234/18/1 217/19/1 216/20/1
f 234/17/1 235/18/1 218/19/1 217/20/1
f 235/17/1 236/18/1 219/19/1 218/20/1
f 236/17/1 237/18/1 220/19/1 219/20/1
f 237/21/1 238/22/1 221/23/1 220/24/1
f 239/13/1 240/14/1 223/15/1 222/16/1
f 240/17/1 241/18/1 224/19/1 223/20/1
f 241/17/1 242/18/1 225/19/1 224/20/1
f 242/17/1 243/18/1 226/19/1 225/20/1
f 243/17/1 244/18/1 227/19/1 226/20/1
f 244/17/1 245/18/1 228/19/1 227/20/1
f 245/17/1 246/18/1 229/19/1 228/20/1
f 246/17/1 247/18/1 230/19/1 229/20/1
f 247/17/1 248/18/1 231/19/1 230/20/1
f 248/17/1 249/18/1 232/19/1 231/20/1
f 249/17/1 250/18/1 233/19/1 232/20/1
f 250/17/1 251/18/1 234/19/1 233/20/1
f 251/17/1 252/18/1 235/19/1 234/20/1
f 252/17/1 253/18/1 236/19/1 235/20/1
f 253/17/1 254/18/1 237/19/1 236/20/1
f 254/21/1 255/22/1 238/23/1 237/24/1
f 256/13/1 257/14/1 240/15/1 239/16/1
f 257/17/1 258/18/1 241/19/1 240/20/1
f 258/17/1 259/18/1 242/19/1 241/20/1
f 259/17/1 260/18/1 243/19/1 242/20/1
f 260/17/1 261/18/1 244/19/1 243/20/1
f 261/17/1 262/18/1 245/19/1 244/20/1
f 262/17/1 263/18/1 246/19/1 245/20/1
f 263/17/1 264/18/1 247/19/1 246/20/1
f 264/17/1 265/18/1 248/19/1 247/20/1
f 265/17/1 266/18/1 249/19/1 248/20/1
f 266/17/1 267/18/1 250/19/1 249/20/1
f 267/17/1 268/18/1 251/19/1 250/20/1
f 268/17/1 269/18/1 252/19/1 251/20/1
f 269/17/1 270/18/1 253/19/1 252/20/1
f 270/17/1 271/18/1 254/19/1 253/20/1
f 271/21/1 272/22/1 255/23/1 254/24/1
f 273/13/1 274/14/1 257/15/1 256/16/1
f 274/17/1 275/18/1 258/19/1 257/20/1
f 275/17/1 276/18/1 259/19/1 258/20/1
f 276/17/1 277/18/1 260/19/1 259/20/1
f 277/17/1 278/18/1 261/19/1 260/20/1
f 278/17/1 279/18/1 262/19/1 261/20/1
f 279/17/1 280/18/1 263/19/1 262/20/1
f 280/17/1 281/18/1 264/19/1 263/20/1
f 281/17/1 282/18/1 265/19/1 264/20/1
f 282/17/1 283/18/1 266/19/1 265/20/1
f 283/17/1 284/18/1 267/19/1 266/20/1
f 284/17/1 285/18/1 268/19/1 267/20/1
f 285/17/1 286/18/1 269/19/1 268/20/1
f 286/17/1 287/18/1 270/19/1 269/20/1
f 287/17/1 288/18/1 271/19/1 270/20/1
f 288/21/1 289/22/1 272/23/1 271/24/1
f 290/13/1 291/14/1 274/15/1 273/16/1
f 291/17/1 292/18/1 275/19/1 274/20/1
f 292/17/1 293/18/1 276/19/1 275/20/1
f 293/17/1 294/18/1 277/19/1 276/20/1
f 294/17/1 295/18/1 278/19/1 277/20/1
f 295/17/1 296/18/1 279/19/1 278/20/1
f 296/17/1 297/18/1 280/19/1 279/20/1
f 297/17/1 298/18/1 281/19/1 280/20/1
f 298/17/1 299/18/1 282/19/1 281/20/1
f 299/17/1 300/18/1 283/19/1 282/20/1
f 300/17/1 301/18/1 284/19/1 283/20/1
f 301/17/1 302/18/1 285/19/1 284/20/1
f 302/17/1 303/18/1 286/19/1 285/20/1
f 303/17/1 304/18/1 287/19/1 286/20/1
f 304/17/1 305/18/1 288/19/1 287/20/1
f 305/21/1 306/22/1 289/23/1 288/24/1
f 307/13/1 308/14/1 291/15/1 290/16/1
f 308/17/1 309/18/1 292/19/1 291/20/1
f 309/17/1 310/18/1 293/19/1 292/20/1
f 310/17/1 311/18/1 294/19/1 293/20/1
f 311/17/1 312/18/1 295/19/1 294/20/1
f 312/17/1 313/18/1 296/19/1 295/20/1
f 313/17/1 314/18/1 297/19/1 296/20/1
f 314/17/1 315/18/1 298/19/1 297/20/1
f 315/17/1 316/18/1 299/19/1 298/20/1
f 316/17/1 317/18/1 300/19/1 299/20/1
f 317/17/1 318/18/1 301/19/1 300/20/1
f 318/17/1 319/18/1 302/19/1 301/20/1
f 319/17/1 320/18/1 303/19/1 302/20/1
f 320/17/1 321/18/1 304/19/1 303/20/1
f 321/17/1 322/18/1 305/19/1 304/20/1
f 322/21/1 323/22/1 306/23/1 305/24/1
f 324/13/1 325/14/1 308/15/1 307/16/1
f 325/17/1 326/18/1 309/19/1 308/20/1
f 326/17/1 327/18/1 310/19/1 309/20/1
f 327/17/1 328/18/1 311/19/1 310/20/1
f 328/17/1 329/18/1 312/19/1 311/20/1
f 329/17/1 330/18/1 313/19/1 312/20/1
f 330/17/1 331/18/1 314/19/1 313/20/1
f 331/17/1 332/18/1 315/19/1 314/20/1
f 332/17/1 333/18/1 316/19/1 315/20/1
f 333/17/1 334/18/1 317/19/1 316/20/1
f 334/17/1 335/18/1 318/19/1 317/20/1
f 335/17/1 336/18/1 319/19/1 318/20/1
f 336/17/1 337/18/1 320/19/1 319/20/1
f 337/17/1 338/18/1 321/19/1 320/20/1
f 338/17/1 339/18/1 322/19/1 321/20/1
f 339/21/1 340/22/1 323/23/1 322/24/1
f 341/13/1 342/14/1 325/15/1 324/16/1
f 342/17/1 343/18/1 326/19/1 325/20/1
f 343/17/1 344/18/1 327/19/1 326/20/1
f 344/17/1 345/18/1 328/19/1 327/20/1
f 345/17/1 346/18/1 329/19/1 328/20/1
f 346/17/1 347/18/1 330/19/1 329/20/1
f 347/17/1 348/18/1 331/19/1 330/20/1
f 348/17/1 349/18/1 332/19/1 331/20/1
f 349/17/1 350/18/1 333/19/1 332/20/1
f 350/17/1 351/18/1 334/19/1 333/20/1
f 351/17/1 352/18/1 335/19/1 334/20/1
f 352/17/1 353/18/1 336/19/1 335/20/1
f 353/17/1 354/18/1 337/19/1 336/20/1
f 354/17/1 355/18/1 338/19/1 337/20/1
f 355/17/1 356/18/1 339/19/1 338/20/1
f 356/21/1 357/22/1 340/23/1 339/24/1

